<?xml version="1.0" encoding="UTF-8" standalone="no"?><!DOCTYPE svg PUBLIC "-//W3C//DTD SVG 1.1//EN" "http://www.w3.org/Graphics/SVG/1.1/DTD/svg11.dtd"><svg width="100%" height="100%" viewBox="0 0 3088 4436" version="1.1" xmlns="http://www.w3.org/2000/svg" xmlns:xlink="http://www.w3.org/1999/xlink" xml:space="preserve" xmlns:serif="http://www.serif.com/" style="fill-rule:evenodd;clip-rule:evenodd;stroke-linejoin:round;stroke-miterlimit:10;"><g id="Layer"><path d="M1679.863,2.281c-10.317,1.237 -11.958,8.488 -18.204,15.866c-6.246,7.378 -5.713,4.62 -21.208,10.689c-15.496,6.068 0.267,35.86 5.008,53.944c4.746,18.085 -36.179,6.215 -50.938,17.703c-14.763,11.488 1.5,24.369 5.179,36.909c3.675,12.54 -12.542,18.315 -21.213,25.719c-8.671,7.405 -14.917,12.685 -16.2,-23.047c-1.283,-35.733 -10.525,-35.18 -19.708,-47.264c-9.183,-12.083 -28.383,-2.638 -32.733,4.008c-4.35,6.646 -0.5,36.074 -0.5,36.074c1.933,12.364 10.542,36.534 8.517,61.627c-10.854,35.725 4.612,69.105 17.704,89.684c2.692,4.233 12.417,34.565 9.354,97.199c-3.067,62.633 -38.142,217.375 -33.071,277.071c2.196,25.854 15.1,73.871 17.371,118.075c2.971,57.842 -5.963,113.917 -18.537,152.812c-11.804,36.5 -51.25,101.225 -66.471,149.142c-4.642,14.6 -11.379,28.425 -13.025,41.917c-3.112,25.475 3.379,43.567 -7.35,43.758c-16.387,0.292 -33.471,-2.279 -45.425,-23.883c-19.621,-35.454 -28.6,-48.954 -32.571,-83.338c-3.967,-34.383 -4.454,-88.629 -16.7,-102.879c-12.242,-14.246 -74.187,-37.104 -87.846,-59.788c-13.658,-22.683 -11.613,-18.954 -23.383,-21.212c-11.767,-2.254 -13.471,12.192 -23.712,12.192c-4.471,0 -28.025,0.704 -56.45,-4.342c-36.688,-6.508 -69.929,-24.425 -96.533,-6.179c-18.996,13.029 -48.512,35.296 -50.604,69.979c-1.008,16.792 -10.121,28.029 -11.687,54.946c-1.675,28.667 4.225,72.833 3.504,81.333c-1.392,16.479 5.908,80.304 24.383,96.862c7.417,6.65 17.496,17.696 31.567,25.388c20.988,11.475 41.996,13.521 51.104,21.042c7.1,5.867 17.562,13.633 33.571,18.708c18.304,5.8 42.867,2.15 47.096,19.371c4.229,17.221 -145.067,149.808 -153.983,195.567c-8.917,45.763 26.867,138.221 17.538,141.792c-9.333,3.575 -25.25,-92.742 -98.038,-167.508c-13.988,-14.371 -29.838,-40.625 -51.604,-65.133c-28.004,-31.529 -62.721,-61.954 -84.004,-79.329c-37.833,-30.883 -176.25,-161.142 -496.354,59.621c-181.571,125.221 -231.475,298.779 -231.475,298.779c0,0 -70.725,-21.287 -70.146,-0.167c0.583,21.121 140.604,78.121 144.967,92.858c2.188,7.4 2.196,51.975 10.188,83.504c7.925,31.267 23.796,49.529 22.212,63.463c-3.188,27.983 -3.925,62.754 20.542,89.683c24.467,26.933 73.138,20.796 87.513,39.583c14.379,18.788 166.112,178.267 175.525,198.742c9.417,20.471 30.75,76.5 22.717,91.688c-8.038,15.188 -57.125,113.213 -57.117,129.267c0.004,16.05 56.262,227.708 53.775,241.663c-1.163,6.512 -18.825,57.583 -16.2,108.054c3,57.663 26.625,115.792 27.392,128.429c1.433,23.704 3.392,201.171 -3.842,218.617c-7.237,17.446 -25.992,20.221 -35.242,69.642c-9.246,49.425 7.758,93.104 0.167,124.258c-7.592,31.15 -62.283,201.067 -58.617,211.433c3.662,10.367 13.292,30.354 8.683,34.737c-4.608,4.383 -17.579,15.871 -30.396,44.758c-12.821,28.888 -12.037,66.429 -23.717,83.338c-5.483,7.942 -37.021,50.775 -50.104,51.942c-10.438,0.929 -22.592,7.604 -26.05,11.854c-5.587,6.875 -5.208,21.033 -8.017,27.225c-2.808,6.192 -27.483,66.938 -42.921,68.808c-15.442,1.867 -92.587,16.179 -96.7,24.883c-1.5,3.171 -2.321,29.162 3.675,55.446c10.462,45.883 14.575,120.221 99.538,133.442c7.267,1.133 28.612,-1.371 28.892,13.863c0.279,15.233 -18.621,21.254 -20.875,33.4c-0.658,3.529 2.938,34.113 -3.008,70.154c-3.842,23.292 -18.129,48.167 -18.704,72.125c-1.587,66.333 14.529,118.583 14.529,118.583l397.15,-75c0,0 177.787,142.458 457.937,125.625c280.154,-16.833 505.442,-336.012 579.025,-368.771c45.842,-20.408 285.225,-77.458 433.054,-88.683c89.458,-6.792 100.55,27.6 117.742,31.567c17.192,3.967 144.325,-42.967 177.362,-41.754c32.913,1.213 687.163,202.683 692.258,204.267c-12.996,-4.25 -21.004,-67.654 -42.421,-100.217c-22.446,-34.121 -58.467,-43.75 -63.129,-48.933c-15.775,-17.542 -33.608,-107.387 -74.654,-160.833c-32.504,-42.317 -82.725,-48.025 -92.692,-50.1c-39.192,-8.163 -12.283,-79.508 -17.033,-93.863c-6.642,-20.058 -20.4,-23.196 -26.221,-30.058c-9.987,-11.775 -1.938,-67.992 -1.004,-81.837c0.938,-13.842 73.646,-69.567 18.037,-129.933c-81.037,-87.975 -160.617,-228.85 -180.204,-268.55c-7.433,-15.067 -24.896,-55.221 -39.746,-97.033c-16.496,-46.429 -28.167,-95.075 -53.446,-94.863c-12.429,0.108 -38.846,3.775 -88.679,-24.883c-44.317,-25.483 -97.513,-78.35 -102.713,-85.175c-10.737,-14.092 30.046,-288.863 30.063,-292.1c0.017,-3.238 4.521,-40.154 -23.383,-181.038c-27.9,-140.883 -81.412,-167.488 -85.675,-179.033c-4.258,-11.546 61.921,-40.154 76.325,-39.75c14.4,0.408 46.746,68.246 61.792,94.529c15.05,26.283 28.45,64.542 25.387,148.637c-3.067,84.096 20.492,114.25 54.946,142.963c34.454,28.708 48.138,14.942 76.154,12.358c28.021,-2.583 10.117,-44.433 15.367,-78.663c5.25,-34.229 69.329,-41.617 89.183,-161.667c19.854,-120.05 -9.008,-183.767 -32.567,-265.879c-23.558,-82.113 -88.629,-146.079 -172.521,-201.746c-83.892,-55.667 -183.358,-0.946 -206.092,14.029c-79.571,52.408 -83.317,159.533 -159.158,209.429c-98.237,-70.079 -329.992,-92.792 -329.846,-92.525c0.146,0.267 -11.229,-165.229 -19.871,-183.375c-8.646,-18.146 -11.029,-86.017 -13.696,-153.317c-9.238,-95.654 -2.283,-179.379 -2.671,-263.037c6.887,-76.267 -31.925,-154.767 -37.746,-208.429c-3.275,-30.212 4.317,-34.058 8.35,-108.892c1.617,-29.992 -8.662,-76.763 -1.671,-117.742c24.433,-143.208 -6.546,-113.813 15.533,-198.071c22.079,-84.258 0.196,-204.171 -3.008,-218.45c-3.2,-14.279 -14.7,-53.662 -22.879,-122.083c-8.179,-68.421 -5.204,-131.929 -9.854,-151.644c-4.646,-19.715 17.637,-39.34 36.575,-63.798c60.262,-64.828 2.879,-68.898 9.854,-90.352c28.05,-40.118 11.363,-51.838 9.688,-64.465c-1.675,-12.628 -1.404,-16.546 -4.175,-27.724c-2.775,-11.178 7.083,-17.54 3.508,-36.408c-3.579,-18.868 -19.246,-23.115 -29.562,-21.878Zm-492.175,1635.357c6.179,-1.658 34.067,62.629 34.067,62.629c0,0 22.983,26.237 36.075,47.429c16.917,27.383 28.725,56.783 28.725,56.783l-18.371,37.412c0,0 -49.142,-24.317 -69.142,-73.15c-20,-48.838 -17.538,-129.446 -11.354,-131.104Zm-402.162,1185.6c6.742,1.588 26.233,7.687 81.167,26.054c38.646,12.921 58.604,36.662 130.438,61.792c60.675,21.233 175.696,40.971 193.562,51.942c23.467,14.412 -38,137.542 -42.421,146.633c-4.421,9.096 -16.529,13.029 -22.046,21.712c-5.517,8.683 -1.721,9.142 -6.012,25.383c-4.287,16.246 -30.233,30.783 -5.008,40.25c25.221,9.471 56.708,11.413 104.879,-10.021c48.175,-21.429 81.379,-77.383 92.358,-113.567c10.979,-36.179 42.688,-81.783 59.454,-90.517c16.771,-8.733 61.167,-8.654 67.475,-5.846c6.304,2.808 22.858,24.454 45.425,36.742c22.567,12.288 31.779,8.85 51.604,19.542c19.825,10.688 60.204,40.625 81.167,50.771c20.967,10.146 68.971,16.238 81.5,18.538c12.533,2.3 51.821,16.037 56.117,19.037c4.296,3.004 7.417,-5.992 -14.529,81c-5.379,21.317 -35.083,85.512 -84.675,174.025c-10.067,17.971 -80.921,108.746 -89.35,126.592c-11.387,24.108 -8.463,34.467 -27.054,48.767c-18.592,14.304 -25.362,-6.788 -52.608,-1c-27.246,5.783 -37.029,16.671 -57.617,17.367c-20.588,0.696 -24.471,-8.808 -23.883,-19.204c0.583,-10.396 39.875,-17.712 32.733,-34.071c-4.146,-9.5 -14.112,-16.479 -27.392,-21.042c-9.588,-3.3 -19.967,-2.304 -35.571,-14.196c-35.983,-27.425 -17.025,-50.154 -67.471,-80.833c-50.446,-30.679 -58.033,-43.633 -116.908,-38.246c-58.875,5.392 -89.213,15.779 -98.2,12.858c-8.992,-2.917 -17.842,-7.75 -19.875,-19.871c-2.033,-12.125 15.479,-17.25 13.529,-35.075c-1.95,-17.821 -10.483,-11.496 -17.537,-33.4c-7.054,-21.904 3.312,-51.592 -12.692,-51.437c-16.008,0.15 -19.271,41.787 -33.404,58.45c-14.133,16.663 -16.129,-1.333 -20.375,12.025c-4.242,13.362 8.933,26.087 3.342,41.588c-5.592,15.496 -13.592,16.742 -25.721,20.375c-12.129,3.633 -1.192,-11.683 -22.879,-5.846c-21.688,5.838 -56.796,22.396 -63.8,29.225c-7,6.829 -12.579,7.525 -25.05,33.904c-7.429,15.717 -1.417,15.846 -4.342,31.9c-1.983,10.887 -8.004,39.221 -25.554,44.088c-8.396,2.329 -21.842,-11.55 -38.746,-22.042c-25.854,-16.05 -56.383,-33.542 -66.133,-38.75c-12.329,-6.579 -24.067,-11.204 -32.733,-19.204c-7.854,-7.25 -12.096,-19.604 -22.212,-21.879c-21.413,-4.808 -30.696,6.812 -41.588,9.188c-10.888,2.375 -55.217,-5.612 -60.292,-23.55c-5.071,-17.933 26.333,-47.512 41.421,-90.854c15.088,-43.338 16.542,-50.071 20.542,-77.158c4,-27.087 -11.708,-26.033 -4.508,-31.062c7.2,-5.029 17.287,8.229 33.4,10.854c16.117,2.629 15.521,-1.817 31.067,-0.333c15.542,1.488 17.688,5.321 31.062,6.346c13.371,1.029 9.35,-8.508 22.379,-2.337c13.029,6.171 14.412,19.171 29.725,27.058c15.317,7.883 18.996,6.45 31.567,4.508c12.571,-1.946 3.442,-6.55 18.704,-12.358c15.267,-5.808 16.408,-6.492 42.421,-10.858c26.017,-4.367 76.317,21.942 70.479,-18.704c-5.838,-40.642 -40.3,-91.4 -72.483,-132.604c-32.183,-41.208 -50.1,-3.396 -64.967,-20.042c-14.863,-16.646 -5.675,-36.85 -15.867,-57.787c-10.187,-20.933 -20.183,-11.204 -25.05,-26.05c-4.867,-14.846 4.508,-17.217 5.513,-33.404c1.004,-16.188 -2.371,-19.233 -1.337,-31.229c1.033,-11.996 4.446,-1.729 5.512,-16.7c1.067,-14.975 -5.788,-46.2 5.342,-46.096c3.375,0.029 -2.729,-2.925 4.008,-1.337Zm1197.625,306.962c24.117,-6.567 107.167,63.858 195.071,84.508c87.9,20.65 93.183,-4.842 150.975,9.354c57.787,14.196 56.017,26 103.879,50.604c47.863,24.604 99.396,120.325 141.125,185.713c41.729,65.392 13.817,39.254 25.717,75.821c11.904,36.571 25.179,39.65 21.879,70.479c-3.3,30.833 -7.679,15.867 -35.071,52.775c-27.392,36.908 -17.392,72.633 -58.288,90.854c-40.892,18.221 -56.137,-12.925 -105.217,-17.871c-49.075,-4.946 -40.288,16.979 -86.342,7.183c-46.058,-9.8 -70.675,-33.796 -97.867,-46.429c-27.196,-12.638 -16.792,-2.504 -31.9,-9.188c-15.108,-6.683 -12.446,-12.958 -28.558,-17.533c-16.117,-4.579 -19.246,1.546 -35.908,-0.838c-16.663,-2.379 -13.058,-8.317 -30.729,-8.683c-17.671,-0.367 -24.442,12.017 -39.917,7.35c-15.471,-4.671 -9.042,-27.521 -22.046,-26.054c-13,1.463 -21.121,30.196 -30.058,31.896c-8.942,1.704 -14.475,-3.417 -43.092,0.838c-28.612,4.254 -110.408,25.9 -165.004,28.892c-54.596,2.996 -20.2,-11.779 -53.442,-16.867c-33.246,-5.092 -54.125,3.408 -79.496,-3.342c-25.375,-6.746 -34.329,-25.533 -18.875,-57.95c15.454,-32.421 65.162,-52.108 80.667,-71.817c15.504,-19.708 50.312,-120.142 109.392,-222.958c59.079,-102.817 108.992,-190.171 133.104,-196.738Zm-1411.062,279.408c8.471,-2.442 14.887,12.875 25.888,23.883c11,11.008 10.583,6.563 18.204,20.208c7.621,13.642 -0.2,22.537 12.192,34.238c12.392,11.7 24.238,3.762 37.408,12.525c13.175,8.762 20.196,15.846 15.367,22.546c-4.829,6.7 -21.175,1.046 -34.737,4.342c-13.562,3.296 -8.542,11.246 -19.542,8.85c-11,-2.396 -7.013,-6.963 -24.55,-18.538c-17.537,-11.575 -36.017,-9.092 -45.592,-27.721c-9.579,-18.633 3.5,-26.7 7.346,-46.762c3.85,-20.067 -0.454,-31.125 8.017,-33.571Zm-34.737,191.896c4.346,-0.821 9.146,-0.188 12.358,1.837c6.429,4.042 11.996,21.029 9.854,28.221c-2.142,7.196 -15.117,12.729 -21.546,8.688c-6.425,-4.042 -11.996,-24.871 -9.85,-32.067c1.071,-3.596 4.837,-5.863 9.183,-6.679Zm-12.858,77.492c3.367,1.325 4.475,31.604 8.183,51.604c3.675,19.812 14.333,16.613 13.025,28.892c-0.425,4.021 -9.617,15.846 -21.042,19.875c-9.362,3.304 -19.946,-1.108 -31.062,2.004c-16.758,4.692 -33.725,14.062 -37.079,3.508c-4.104,-12.925 -4.108,-15.725 12.863,-39.079c8.029,-11.054 22.488,-19.15 33.067,-32.4c12.217,-15.304 20.229,-35.121 22.046,-34.404Z" style="fill:#484848;fill-rule:nonzero;stroke:#000;stroke-width:4.17px;"/></g></svg>